<?xml version="1.0" encoding="utf-8"?>
<!-- Generator: Adobe Illustrator 19.0.0, SVG Export Plug-In . SVG Version: 6.00 Build 0)  -->
<svg version="1.1" id="Layer_1" xmlns="http://www.w3.org/2000/svg" xmlns:xlink="http://www.w3.org/1999/xlink" x="0px" y="0px"
	 viewBox="0 0 500 500" style="enable-background:new 0 0 500 500;" xml:space="preserve">
<style type="text/css">
	.st0{fill:#231F20;}
</style>
<g id="XMLID_1_">
	<path id="XMLID_6_" class="st0" d="M210.1,303.2c-0.5,0.9-1.2,2.3-3.5,2.3H196c-1,0-2.3-0.9-2.3-2.3c0-1,0.2-1.6,0.6-2.3l12-24.3
		l-26.4-39.4l-13.6,14.5l17.4,25.9c1,1.4,1.3,2.1,1.3,2.8c0,1.2-1.3,2.2-2.8,2.2h-12c-1.7,0-2.8-1.2-3.9-2.8l-20.2-29.1l22.3-24.1
		c1.6-1.8,3.1-2.8,5.9-2.8h12.9c2.8,0,4.3,1,5.7,3.2l21.1,33.5l15-34c0.7-1.7,1.7-2.8,3.9-2.8h10.7c1.3,0,2.4,1,2.4,2.3
		c0,0.7-0.2,1.5-0.7,2.3L210.1,303.2L210.1,303.2z M145.1,276.6c0,3.8-2.9,6-6,6H130c-1,0-2.3-1-2.3-2.8v-75.4
		c0-4.6,2.3-6.1,6.3-6.1h8.2c1.7,0,2.9,1.2,2.9,2.8V276.6z M106.5,247.8c10.9,2.5,16.1,8.2,16.1,17.5c0,9.6-6.6,17.3-22.2,17.3H70.7
		c-1.5,0-2.2-1-2.2-2.8v-5.6c0-3.2,1.7-5.9,6-5.9h26.8c3,0,4.2-1.4,4.2-2.4c0-1.6-1.2-2.7-4.7-3.5l-17.1-3.7
		c-10.6-2.3-16.2-8.1-16.2-17c0-10.1,7-18,20.5-18h29.8c1.6,0,2.8,1,2.8,2.8v5.7c0,3.2-1.7,6-6.1,6H88.7c-3.5,0-4.5,1.1-4.5,2.2
		c0,1.7,1,2.4,5,3.4L106.5,247.8"/>
	<path id="XMLID_7_" class="st0" d="M264.4,198.3c0-2.1,1.6-3.8,3.8-3.8c2.2,0,3.8,1.7,3.8,3.8v37.6c3.8-7.9,10.5-11.7,19.2-11.7
		c13.8,0,21.7,10.1,21.7,25.5v29.8c0,2.1-1.7,3.8-3.8,3.8c-2.1,0-3.8-1.7-3.8-3.8v-29.6c0-12-5.1-18.7-15.9-18.7
		c-10.7,0-17.5,8.8-17.5,20.8v27.6c0,2.1-1.7,3.8-3.8,3.8c-2.1,0-3.8-1.7-3.8-3.8V198.3"/>
	<path id="XMLID_10_" class="st0" d="M335.5,283.2c-2.1,0-3.8-1.7-3.8-3.8v-51c0-2.1,1.7-3.8,3.8-3.8c2.1,0,3.8,1.7,3.8,3.8v51
		C339.3,281.5,337.6,283.2,335.5,283.2z M335.5,203.5c2.9,0,5.1,2.2,5.1,5.1s-2.2,5.1-5.1,5.1c-2.9,0-5.1-2.2-5.1-5.1
		S332.6,203.5,335.5,203.5"/>
	<path id="XMLID_11_" class="st0" d="M369.2,268.3c0,4.3,1.4,7.3,6.1,7.3h3.1c2,0,3.3,1.4,3.3,3.3c0,1.9-1.5,3.3-3.3,3.3H375
		c-10.7,0-13.4-5.9-13.4-14v-36.1h-7.8c-1.7,0-3.1-1.4-3.1-3.1c0-1.7,1.4-3.1,3.1-3.1h7.8v-19.6c0-2.2,1.6-3.8,3.8-3.8
		c2.2,0,3.8,1.6,3.8,3.8v19.6h10.7c1.7,0,3.1,1.4,3.1,3.1c0,1.7-1.4,3.1-3.1,3.1h-10.7V268.3"/>
	<path id="XMLID_12_" class="st0" d="M411.3,283.7c-8.3,0-15.3-3.6-20.2-8.2c-0.8-0.8-1.2-1.4-1.2-2.5c0-2,1.4-3.1,3.1-3.1
		c0.8,0,1.7,0.3,2.5,1c4,3.6,9.2,6.5,16,6.5c9,0,13.5-4.2,13.5-10.3c0-6.1-4-8.3-11.1-10.7l-7-2.3c-8.6-2.9-14.2-6.6-14.2-15.2
		c0-10.1,8.1-14.8,18.2-14.8c5.7,0,10.5,1.4,14.7,4.3c1.3,0.9,1.8,1.8,1.8,3c0,1.7-1,3.3-3.1,3.3c-0.7,0-1.3-0.3-2-0.6
		c-3.6-2.1-6.4-3.6-11.2-3.6c-6.4,0-10.9,2.5-10.9,8.3c0,4.3,2.2,6.8,8.5,8.8l7,2.3c9.2,3.1,16.6,6.9,16.6,17
		C432.5,276.9,423.4,283.7,411.3,283.7"/>
</g>
</svg>
