<?xml version="1.0" encoding="utf-8"?>
<!-- Generator: Adobe Illustrator 19.0.0, SVG Export Plug-In . SVG Version: 6.00 Build 0)  -->
<svg version="1.1" id="Layer_1" xmlns="http://www.w3.org/2000/svg" xmlns:xlink="http://www.w3.org/1999/xlink" x="0px" y="0px"
	 viewBox="0 0 500 500" style="enable-background:new 0 0 500 500;" xml:space="preserve">
<g id="layer1" transform="translate(-974.27732,-295.61594)">
	<g id="g45697" transform="matrix(5.2390069,0,0,5.2390069,-4112.2522,-1832.9775)">
		<path id="path38002" d="M987.9,456.3h6.2v3.7h-10.8v-12.1h4.6V456.3"/>
		<path id="path38004" d="M1039.4,448.2L1039.4,448.2l-12.9-0.1v3.3c0,0,5.6,0,5.7,0c0,0,0,0,0,0c-0.2,0.3-6.1,8.1-6.3,8.4l0,0h13.1
			v-3.5c0,0-5.6,0-5.7,0c0,0,0.5-0.6,0.5-0.6C1035.1,454,1039.2,448.4,1039.4,448.2"/>
		<path id="path38006" d="M1002.2,447.6c-3.8,0-7.2,2.3-7.2,6.4s3.4,6.4,7.2,6.4c3.8,0,7.2-2.3,7.2-6.4S1006,447.6,1002.2,447.6z
			 M1002.2,457c-1.6,0-2.9-1.3-2.9-3s1.3-3,2.9-3c1.6,0,2.9,1.3,2.9,3S1003.8,457,1002.2,457"/>
		<path id="path38008" d="M1018.8,447.8c-1.3,0-2.7,0.6-3.5,1.9c0-0.1,0-1.5,0-1.5h-4.2V460h4.2v-5.9c0-2.2,1.8-2.7,2.7-2.6
			c1.5,0.1,2.2,1,2.2,2.8l0,5.6h4.2v-6.9C1024.5,449.8,1022.1,447.7,1018.8,447.8"/>
		<path id="path38010" d="M1049.8,448c0,0.1,0,1.2,0,1.2l-0.1-0.1c-0.8-0.9-2.3-1.4-3.6-1.4c-1.7,0-3.3,0.6-4.5,1.7
			c-1.1,1.1-1.7,2.7-1.7,4.6c0,3.6,2.7,6.3,6.2,6.3c1.1,0,2.6-0.3,3.5-1.5l0.1-0.1c0,0,0,1.2,0,1.2c0.1,0,4.1,0,4.1,0
			c0-0.1,0-11.9,0-11.9C1053.9,448,1049.9,448,1049.8,448z M1047.3,457c-1.6,0-2.9-1.3-2.9-2.9s1.3-2.9,2.9-2.9
			c1.6,0,2.9,1.3,2.9,2.9S1048.9,457,1047.3,457"/>
	</g>
</g>
</svg>
